<?xml version="1.0" encoding="utf-8"?>
<!-- Generator: Adobe Illustrator 16.0.0, SVG Export Plug-In . SVG Version: 6.00 Build 0)  -->
<!DOCTYPE svg PUBLIC "-//W3C//DTD SVG 1.1//EN" "http://www.w3.org/Graphics/SVG/1.1/DTD/svg11.dtd">
<svg version="1.1" id="Layer_1" xmlns="http://www.w3.org/2000/svg" xmlns:xlink="http://www.w3.org/1999/xlink" x="0px" y="0px"
	 width="144px" height="144px" viewBox="0 0 144 144" enable-background="new 0 0 144 144" xml:space="preserve">
<g>
	<g>
		<defs>
			<circle id="SVGID_1_" cx="71.909" cy="71.909" r="71.909"/>
		</defs>
		<clipPath id="SVGID_2_">
			<use xlink:href="#SVGID_1_"  overflow="visible"/>
		</clipPath>
		<g clip-path="url(#SVGID_2_)">
			<path fill="#F7E06A" d="M0,144h143.818H0z"/>
		</g>
		<g clip-path="url(#SVGID_2_)">
			<rect y="142" fill="#F7E06A" width="144" height="2"/>
		</g>
		<g clip-path="url(#SVGID_2_)">
			<rect y="138" fill="#F7DF69" width="144" height="4"/>
		</g>
		<g clip-path="url(#SVGID_2_)">
			<rect y="136" fill="#F7DE69" width="144" height="2"/>
		</g>
		<g clip-path="url(#SVGID_2_)">
			<rect y="134" fill="#F7DD68" width="144" height="2"/>
		</g>
		<g clip-path="url(#SVGID_2_)">
			<rect y="131" fill="#F7DC67" width="144" height="3"/>
		</g>
		<g clip-path="url(#SVGID_2_)">
			<rect y="128" fill="#F7DB66" width="144" height="3"/>
		</g>
		<g clip-path="url(#SVGID_2_)">
			<rect y="126" fill="#F7DA66" width="144" height="2"/>
		</g>
		<g clip-path="url(#SVGID_2_)">
			<rect y="123" fill="#F6D865" width="144" height="3"/>
		</g>
		<g clip-path="url(#SVGID_2_)">
			<rect y="120" fill="#F6D764" width="144" height="3"/>
		</g>
		<g clip-path="url(#SVGID_2_)">
			<rect y="118" fill="#F6D663" width="144" height="2"/>
		</g>
		<g clip-path="url(#SVGID_2_)">
			<rect y="115" fill="#F6D563" width="144" height="3"/>
		</g>
		<g clip-path="url(#SVGID_2_)">
			<rect y="112" fill="#F6D462" width="144" height="3"/>
		</g>
		<g clip-path="url(#SVGID_2_)">
			<rect y="110" fill="#F6D361" width="144" height="2"/>
		</g>
		<g clip-path="url(#SVGID_2_)">
			<rect y="108" fill="#F6D361" width="144" height="2"/>
		</g>
		<g clip-path="url(#SVGID_2_)">
			<rect y="108" fill="#F6D261" width="143.818" height="0"/>
		</g>
		<g clip-path="url(#SVGID_2_)">
			<rect y="107" fill="#F6D160" width="144" height="1"/>
		</g>
		<g clip-path="url(#SVGID_2_)">
			<rect y="106" fill="#F6D060" width="144" height="1"/>
		</g>
		<g clip-path="url(#SVGID_2_)">
			<rect y="105" fill="#F6CF5F" width="144" height="1"/>
		</g>
		<g clip-path="url(#SVGID_2_)">
			<rect y="105" fill="#F6CE5F" width="143.818" height="0"/>
		</g>
		<g clip-path="url(#SVGID_2_)">
			<rect y="104" fill="#F6CD5E" width="144" height="1"/>
		</g>
		<g clip-path="url(#SVGID_2_)">
			<rect y="103" fill="#F6CC5E" width="144" height="1"/>
		</g>
		<g clip-path="url(#SVGID_2_)">
			<rect y="103" fill="#F6CB5D" width="143.818" height="0"/>
		</g>
		<g clip-path="url(#SVGID_2_)">
			<rect y="102" fill="#F6CA5D" width="144" height="1"/>
		</g>
		<g clip-path="url(#SVGID_2_)">
			<rect y="100" fill="#F5C95C" width="144" height="2"/>
		</g>
		<g clip-path="url(#SVGID_2_)">
			<rect y="99" fill="#F5C85C" width="144" height="1"/>
		</g>
		<g clip-path="url(#SVGID_2_)">
			<rect y="99" fill="#F5C75B" width="143.818" height="0"/>
		</g>
		<g clip-path="url(#SVGID_2_)">
			<rect y="98" fill="#F5C65B" width="144" height="1"/>
		</g>
		<g clip-path="url(#SVGID_2_)">
			<rect y="97" fill="#F5C55A" width="144" height="1"/>
		</g>
		<g clip-path="url(#SVGID_2_)">
			<rect y="96" fill="#F5C45A" width="144" height="1"/>
		</g>
		<g clip-path="url(#SVGID_2_)">
			<rect y="96" fill="#F5C359" width="143.818" height="0"/>
		</g>
		<g clip-path="url(#SVGID_2_)">
			<rect y="95" fill="#F5C259" width="144" height="1"/>
		</g>
		<g clip-path="url(#SVGID_2_)">
			<rect y="94" fill="#F5C158" width="144" height="1"/>
		</g>
		<g clip-path="url(#SVGID_2_)">
			<rect y="92" fill="#F5C058" width="144" height="2"/>
		</g>
		<g clip-path="url(#SVGID_2_)">
			<rect y="92" fill="#F5BF57" width="143.818" height="0"/>
		</g>
		<g clip-path="url(#SVGID_2_)">
			<rect y="91" fill="#F5BE57" width="144" height="1"/>
		</g>
		<g clip-path="url(#SVGID_2_)">
			<rect y="90" fill="#F5BD56" width="144" height="1"/>
		</g>
		<g clip-path="url(#SVGID_2_)">
			<rect y="89" fill="#F5BC56" width="144" height="1"/>
		</g>
		<g clip-path="url(#SVGID_2_)">
			<rect y="89" fill="#F5BB55" width="143.818" height="0"/>
		</g>
		<g clip-path="url(#SVGID_2_)">
			<rect y="88" fill="#F5BA55" width="144" height="1"/>
		</g>
		<g clip-path="url(#SVGID_2_)">
			<rect y="87" fill="#F5B955" width="144" height="1"/>
		</g>
		<g clip-path="url(#SVGID_2_)">
			<rect y="86" fill="#F5B854" width="144" height="1"/>
		</g>
		<g clip-path="url(#SVGID_2_)">
			<rect y="86" fill="#F4B754" width="143.818" height="0"/>
		</g>
		<g clip-path="url(#SVGID_2_)">
			<rect y="84" fill="#F4B653" width="144" height="2"/>
		</g>
		<g clip-path="url(#SVGID_2_)">
			<rect y="83" fill="#F4B553" width="144" height="1"/>
		</g>
		<g clip-path="url(#SVGID_2_)">
			<rect y="83" fill="#F4B452" width="143.818" height="0"/>
		</g>
		<g clip-path="url(#SVGID_2_)">
			<rect y="82" fill="#F4B352" width="144" height="1"/>
		</g>
		<g clip-path="url(#SVGID_2_)">
			<rect y="81" fill="#F4B251" width="144" height="1"/>
		</g>
		<g clip-path="url(#SVGID_2_)">
			<rect y="80" fill="#F4B151" width="144" height="1"/>
		</g>
		<g clip-path="url(#SVGID_2_)">
			<rect y="80" fill="#F4B050" width="143.818" height="0"/>
		</g>
		<g clip-path="url(#SVGID_2_)">
			<rect y="79" fill="#F4AF50" width="144" height="1"/>
		</g>
		<g clip-path="url(#SVGID_2_)">
			<rect y="78" fill="#F4AE4F" width="144" height="1"/>
		</g>
		<g clip-path="url(#SVGID_2_)">
			<rect y="76" fill="#F4AD4F" width="144" height="2"/>
		</g>
		<g clip-path="url(#SVGID_2_)">
			<rect y="76" fill="#F4AC4E" width="143.818" height="0"/>
		</g>
		<g clip-path="url(#SVGID_2_)">
			<rect y="75" fill="#F4AB4E" width="144" height="1"/>
		</g>
		<g clip-path="url(#SVGID_2_)">
			<rect y="74" fill="#F4AA4D" width="144" height="1"/>
		</g>
		<g clip-path="url(#SVGID_2_)">
			<rect y="73" fill="#F4A94D" width="144" height="1"/>
		</g>
		<g clip-path="url(#SVGID_2_)">
			<rect y="73" fill="#F4A84C" width="143.818" height="0"/>
		</g>
		<g clip-path="url(#SVGID_2_)">
			<rect y="72" fill="#F4A74C" width="144" height="1"/>
		</g>
		<g clip-path="url(#SVGID_2_)">
			<rect y="71" fill="#F4A64B" width="144" height="1"/>
		</g>
		<g clip-path="url(#SVGID_2_)">
			<rect y="70" fill="#F4A54B" width="144" height="1"/>
		</g>
		<g clip-path="url(#SVGID_2_)">
			<rect y="70" fill="#F3A44A" width="143.818" height="0"/>
		</g>
		<g clip-path="url(#SVGID_2_)">
			<rect y="68" fill="#F3A34A" width="144" height="2"/>
		</g>
		<g clip-path="url(#SVGID_2_)">
			<rect y="67" fill="#F3A249" width="144" height="1"/>
		</g>
		<g clip-path="url(#SVGID_2_)">
			<rect y="66" fill="#F3A149" width="144" height="1"/>
		</g>
		<g clip-path="url(#SVGID_2_)">
			<rect y="66" fill="#F3A048" width="143.818" height="0"/>
		</g>
		<g clip-path="url(#SVGID_2_)">
			<rect y="65" fill="#F39F48" width="144" height="1"/>
		</g>
		<g clip-path="url(#SVGID_2_)">
			<rect y="64" fill="#F39E48" width="144" height="1"/>
		</g>
		<g clip-path="url(#SVGID_2_)">
			<rect y="63" fill="#F39D47" width="144" height="1"/>
		</g>
		<g clip-path="url(#SVGID_2_)">
			<rect y="63" fill="#F39C47" width="143.818" height="0"/>
		</g>
		<g clip-path="url(#SVGID_2_)">
			<rect y="62" fill="#F39B46" width="144" height="1"/>
		</g>
		<g clip-path="url(#SVGID_2_)">
			<rect y="60" fill="#F39A46" width="144" height="2"/>
		</g>
		<g clip-path="url(#SVGID_2_)">
			<rect y="60" fill="#F39945" width="143.818" height="0"/>
		</g>
		<g clip-path="url(#SVGID_2_)">
			<rect y="59" fill="#F39845" width="144" height="1"/>
		</g>
		<g clip-path="url(#SVGID_2_)">
			<rect y="58" fill="#F39744" width="144" height="1"/>
		</g>
		<g clip-path="url(#SVGID_2_)">
			<rect y="57" fill="#F39644" width="144" height="1"/>
		</g>
		<g clip-path="url(#SVGID_2_)">
			<rect y="57" fill="#F39543" width="143.818" height="0"/>
		</g>
		<g clip-path="url(#SVGID_2_)">
			<rect y="56" fill="#F39443" width="144" height="1"/>
		</g>
		<g clip-path="url(#SVGID_2_)">
			<rect y="55" fill="#F39342" width="144" height="1"/>
		</g>
		<g clip-path="url(#SVGID_2_)">
			<rect y="54" fill="#F29142" width="144" height="1"/>
		</g>
		<g clip-path="url(#SVGID_2_)">
			<rect y="54" fill="#F29041" width="143.818" height="0"/>
		</g>
		<g clip-path="url(#SVGID_2_)">
			<rect y="53" fill="#F28F41" width="144" height="1"/>
		</g>
		<g clip-path="url(#SVGID_2_)">
			<rect y="51" fill="#F28E40" width="144" height="2"/>
		</g>
		<g clip-path="url(#SVGID_2_)">
			<rect y="50" fill="#F28D40" width="144" height="1"/>
		</g>
		<g clip-path="url(#SVGID_2_)">
			<rect y="50" fill="#F28C3F" width="143.818" height="0"/>
		</g>
		<g clip-path="url(#SVGID_2_)">
			<rect y="49" fill="#F28B3F" width="144" height="1"/>
		</g>
		<g clip-path="url(#SVGID_2_)">
			<rect y="48" fill="#F28A3E" width="144" height="1"/>
		</g>
		<g clip-path="url(#SVGID_2_)">
			<rect y="47" fill="#F2893E" width="144" height="1"/>
		</g>
		<g clip-path="url(#SVGID_2_)">
			<rect y="47" fill="#F2883D" width="143.818" height="0"/>
		</g>
		<g clip-path="url(#SVGID_2_)">
			<rect y="46" fill="#F2873D" width="144" height="1"/>
		</g>
		<g clip-path="url(#SVGID_2_)">
			<rect y="45" fill="#F2863C" width="144" height="1"/>
		</g>
		<g clip-path="url(#SVGID_2_)">
			<rect y="43" fill="#F2853C" width="144" height="2"/>
		</g>
		<g clip-path="url(#SVGID_2_)">
			<rect y="43" fill="#F2843C" width="143.818" height="0"/>
		</g>
		<g clip-path="url(#SVGID_2_)">
			<rect y="42" fill="#F2833B" width="144" height="1"/>
		</g>
		<g clip-path="url(#SVGID_2_)">
			<rect y="41" fill="#F2823B" width="144" height="1"/>
		</g>
		<g clip-path="url(#SVGID_2_)">
			<rect y="41" fill="#F2813A" width="143.818" height="0"/>
		</g>
		<g clip-path="url(#SVGID_2_)">
			<rect y="40" fill="#F2803A" width="144" height="1"/>
		</g>
		<g clip-path="url(#SVGID_2_)">
			<rect y="39" fill="#F17F39" width="144" height="1"/>
		</g>
		<g clip-path="url(#SVGID_2_)">
			<rect y="38" fill="#F17E39" width="144" height="1"/>
		</g>
		<g clip-path="url(#SVGID_2_)">
			<rect y="38" fill="#F17D38" width="143.818" height="0"/>
		</g>
		<g clip-path="url(#SVGID_2_)">
			<rect y="37" fill="#F17C38" width="144" height="1"/>
		</g>
		<g clip-path="url(#SVGID_2_)">
			<rect y="35" fill="#F17B37" width="144" height="2"/>
		</g>
		<g clip-path="url(#SVGID_2_)">
			<rect y="34" fill="#F17A37" width="144" height="1"/>
		</g>
		<g clip-path="url(#SVGID_2_)">
			<rect y="34" fill="#F17936" width="143.818" height="0"/>
		</g>
		<g clip-path="url(#SVGID_2_)">
			<rect y="33" fill="#F17836" width="144" height="1"/>
		</g>
		<g clip-path="url(#SVGID_2_)">
			<rect y="32" fill="#F17735" width="144" height="1"/>
		</g>
		<g clip-path="url(#SVGID_2_)">
			<rect y="31" fill="#F17635" width="144" height="1"/>
		</g>
		<g clip-path="url(#SVGID_2_)">
			<rect y="31" fill="#F17534" width="143.818" height="0"/>
		</g>
		<g clip-path="url(#SVGID_2_)">
			<rect y="30" fill="#F17434" width="144" height="1"/>
		</g>
		<g clip-path="url(#SVGID_2_)">
			<rect y="29" fill="#F17333" width="144" height="1"/>
		</g>
		<g clip-path="url(#SVGID_2_)">
			<rect y="27" fill="#F17233" width="144" height="2"/>
		</g>
		<g clip-path="url(#SVGID_2_)">
			<rect y="27" fill="#F17132" width="143.818" height="0"/>
		</g>
		<g clip-path="url(#SVGID_2_)">
			<rect y="26" fill="#F17032" width="144" height="1"/>
		</g>
		<g clip-path="url(#SVGID_2_)">
			<rect y="25" fill="#F16F31" width="144" height="1"/>
		</g>
		<g clip-path="url(#SVGID_2_)">
			<rect y="24" fill="#F16E31" width="144" height="1"/>
		</g>
		<g clip-path="url(#SVGID_2_)">
			<rect y="24" fill="#F16D30" width="143.818" height="0"/>
		</g>
		<g clip-path="url(#SVGID_2_)">
			<rect y="23" fill="#F06C30" width="144" height="1"/>
		</g>
		<g clip-path="url(#SVGID_2_)">
			<rect y="22" fill="#F06B2F" width="144" height="1"/>
		</g>
		<g clip-path="url(#SVGID_2_)">
			<rect y="22" fill="#F06A2F" width="143.818" height="0"/>
		</g>
		<g clip-path="url(#SVGID_2_)">
			<rect y="21" fill="#F0692F" width="144" height="1"/>
		</g>
		<g clip-path="url(#SVGID_2_)">
			<rect y="19" fill="#F0682E" width="144" height="2"/>
		</g>
		<g clip-path="url(#SVGID_2_)">
			<rect y="18" fill="#F0672E" width="144" height="1"/>
		</g>
		<g clip-path="url(#SVGID_2_)">
			<rect y="18" fill="#F0662D" width="143.818" height="0"/>
		</g>
		<g clip-path="url(#SVGID_2_)">
			<rect y="17" fill="#F0652D" width="144" height="1"/>
		</g>
		<g clip-path="url(#SVGID_2_)">
			<rect y="16" fill="#F0642C" width="144" height="1"/>
		</g>
		<g clip-path="url(#SVGID_2_)">
			<rect y="15" fill="#F0632C" width="144" height="1"/>
		</g>
		<g clip-path="url(#SVGID_2_)">
			<rect y="15" fill="#F0622B" width="143.818" height="0"/>
		</g>
		<g clip-path="url(#SVGID_2_)">
			<rect y="14" fill="#F0612B" width="144" height="1"/>
		</g>
		<g clip-path="url(#SVGID_2_)">
			<rect y="13" fill="#F0602A" width="144" height="1"/>
		</g>
		<g clip-path="url(#SVGID_2_)">
			<rect y="11" fill="#F05F2A" width="144" height="2"/>
		</g>
		<g clip-path="url(#SVGID_2_)">
			<rect y="11" fill="#F05E29" width="143.818" height="0"/>
		</g>
		<g clip-path="url(#SVGID_2_)">
			<rect y="10" fill="#F05D29" width="144" height="1"/>
		</g>
		<g clip-path="url(#SVGID_2_)">
			<rect y="9" fill="#F05C28" width="144" height="1"/>
		</g>
		<g clip-path="url(#SVGID_2_)">
			<rect y="8" fill="#F05B28" width="144" height="1"/>
		</g>
		<g clip-path="url(#SVGID_2_)">
			<rect y="8" fill="#EF5A27" width="143.818" height="0"/>
		</g>
		<g clip-path="url(#SVGID_2_)">
			<rect y="7" fill="#EF5927" width="144" height="1"/>
		</g>
		<g clip-path="url(#SVGID_2_)">
			<rect y="6" fill="#EF5826" width="144" height="1"/>
		</g>
		<g clip-path="url(#SVGID_2_)">
			<rect y="5" fill="#EF5726" width="144" height="1"/>
		</g>
		<g clip-path="url(#SVGID_2_)">
			<rect y="5" fill="#EF5625" width="143.818" height="0"/>
		</g>
		<g clip-path="url(#SVGID_2_)">
			<rect y="3" fill="#EF5525" width="144" height="2"/>
		</g>
		<g clip-path="url(#SVGID_2_)">
			<rect y="2" fill="#EF5424" width="144" height="1"/>
		</g>
		<g clip-path="url(#SVGID_2_)">
			<rect y="1" fill="#EF5324" width="144" height="1"/>
		</g>
		<g clip-path="url(#SVGID_2_)">
			<rect y="1" fill="#EF5223" width="143.818" height="0"/>
		</g>
		<g clip-path="url(#SVGID_2_)">
			<rect fill="#EF5123" width="144" height="1"/>
		</g>
		<g clip-path="url(#SVGID_2_)">
			<path fill="#EF5123" d="M143.818,0H0H143.818z"/>
		</g>
	</g>
</g>
<g>
	<g>
		<path fill="#231F20" d="M46.228,81.824c-5.979,0-10.844-4.864-10.844-10.844c0-5.979,4.864-10.844,10.844-10.844
			c5.979,0,10.843,4.865,10.843,10.844C57.07,76.96,52.206,81.824,46.228,81.824z"/>
	</g>
</g>
<g>
	<g>
		<path fill="#231F20" d="M97.591,81.824c-5.979,0-10.843-4.864-10.843-10.844c0-5.979,4.864-10.844,10.843-10.844
			c5.979,0,10.844,4.865,10.844,10.844C108.435,76.96,103.57,81.824,97.591,81.824z"/>
	</g>
</g>
<g>
	<g>
		<path fill="#231F20" d="M82.182,65.631c-2.206,0-3.994-1.788-3.994-3.994c0-2.205,1.786-3.993,3.99-3.995l0,0
			c0.189,0,19.038-0.143,27.998-9.103c1.561-1.561,4.088-1.561,5.648,0c1.561,1.56,1.561,4.09,0,5.649
			C104.512,65.501,83.088,65.631,82.182,65.631z"/>
	</g>
</g>
<g>
	<g>
		<path fill="#231F20" d="M61.637,65.631c-0.906,0-22.33-0.13-33.643-11.442c-1.561-1.56-1.561-4.09,0-5.649
			c1.561-1.561,4.088-1.561,5.648,0c8.96,8.96,27.809,9.103,27.998,9.103c2.205,0.004,3.99,1.794,3.988,3.999
			S63.841,65.631,61.637,65.631z"/>
	</g>
</g>
<g>
	<g>
		<path fill="#231F20" d="M92.455,117.565H51.363c-2.117,0-3.957-1.455-4.442-3.517c-0.487-2.061,0.507-4.186,2.4-5.133
			c6.699-3.349,14.043-5.047,21.826-5.047c13.103,0,22.937,4.841,23.35,5.047c1.894,0.947,2.888,3.072,2.4,5.133
			C96.412,116.11,94.572,117.565,92.455,117.565z"/>
	</g>
</g>
</svg>
