<?xml version="1.0" encoding="utf-8"?>
<!-- Generator: Adobe Illustrator 16.0.0, SVG Export Plug-In . SVG Version: 6.00 Build 0)  -->
<!DOCTYPE svg PUBLIC "-//W3C//DTD SVG 1.1//EN" "http://www.w3.org/Graphics/SVG/1.1/DTD/svg11.dtd">
<svg version="1.1" id="Layer_1" xmlns="http://www.w3.org/2000/svg" xmlns:xlink="http://www.w3.org/1999/xlink" x="0px" y="0px"
	 width="143.75px" height="143.75px" viewBox="0 0 143.75 143.75" enable-background="new 0 0 143.75 143.75" xml:space="preserve">
<g>
	<g>
		<circle fill="#F8E069" cx="71.875" cy="71.875" r="71.875"/>
	</g>
</g>
<g>
	<g>
		<path fill="#231F20" d="M72.636,117.299c-14.397,0-24.925-10.555-25.366-11.004c-2.207-2.248-2.175-5.859,0.073-8.066
			c2.241-2.201,5.841-2.176,8.051,0.057c0.121,0.122,7.736,7.605,17.242,7.605c0.026,0,0.053,0,0.079-0.001
			c5.448-0.023,10.705-2.576,15.626-7.587c2.206-2.249,5.817-2.282,8.066-0.074c2.248,2.207,2.28,5.818,0.073,8.066
			C89.313,113.597,81.289,117.299,72.636,117.299z"/>
	</g>
</g>
<g>
	<g>
		<path fill="#231F20" d="M115.229,45.064c-1.022,0-2.044-0.39-2.823-1.17c-8.851-8.851-17.627-9.098-17.713-9.098
			c-2.205,0-3.993-1.787-3.993-3.993s1.788-3.993,3.993-3.993c0.487,0,12.052,0.129,23.359,11.438c1.56,1.56,1.56,4.087,0,5.646
			C117.271,44.675,116.25,45.064,115.229,45.064z"/>
	</g>
</g>
<g>
	<g>
		<path fill="#231F20" d="M28.521,45.064c-1.021,0-2.043-0.39-2.823-1.17c-1.56-1.56-1.56-4.087,0-5.646
			C37.006,26.939,48.57,26.811,49.058,26.811c2.205,0,3.993,1.787,3.993,3.993c0,2.194-1.771,3.978-3.965,3.993
			c-0.42,0.009-8.931,0.287-17.741,9.098C30.565,44.675,29.543,45.064,28.521,45.064z"/>
	</g>
</g>
<g>
	<g>
		<path fill="#231F20" d="M16.629,54.974c-1.303-4.196,1.227-7.628,5.618-7.628h99.256c4.392,0,6.921,3.432,5.618,7.628
			l-5.532,17.831c-1.303,4.195-5.962,7.627-10.354,7.627H95.263c-4.392,0-9.593-3.215-11.558-7.143l-3.124-6.251
			c-1.966-3.928-5.883-7.143-8.706-7.143s-6.74,3.215-8.706,7.143l-3.124,6.251c-1.965,3.928-7.166,7.143-11.558,7.143H32.515
			c-4.392,0-9.051-3.432-10.354-7.627L16.629,54.974z"/>
	</g>
</g>
</svg>
