<?xml version="1.0" encoding="utf-8"?>
<!-- Generator: Adobe Illustrator 16.0.0, SVG Export Plug-In . SVG Version: 6.00 Build 0)  -->
<!DOCTYPE svg PUBLIC "-//W3C//DTD SVG 1.1//EN" "http://www.w3.org/Graphics/SVG/1.1/DTD/svg11.dtd">
<svg version="1.1" id="Layer_1" xmlns="http://www.w3.org/2000/svg" xmlns:xlink="http://www.w3.org/1999/xlink" x="0px" y="0px"
	 width="144.167px" height="144.167px" viewBox="0 0 144.167 144.167" enable-background="new 0 0 144.167 144.167"
	 xml:space="preserve">
<g>
	<g>
		<circle fill="#F8E069" cx="72.083" cy="72.084" r="72.083"/>
	</g>
</g>
<g>
	<g>
		<path fill="#231F20" d="M102.977,104.121H41.19c-2.527,0-4.576-2.05-4.576-4.577s2.049-4.577,4.576-4.577h61.786
			c2.527,0,4.576,2.05,4.576,4.577S105.504,104.121,102.977,104.121z"/>
	</g>
</g>
<g>
	<g>
		<path fill="#EE4036" d="M64.99,99.258v13.616c0,10.49,8.503,18.993,18.993,18.993s18.993-8.503,18.993-18.993V99.258"/>
	</g>
</g>
<g>
	<g>
		<g>
			<path fill="#F37D5C" d="M88.561,99.258v12.967c0,2.527-2.05,4.577-4.577,4.577s-4.576-2.05-4.576-4.577V99.258"/>
		</g>
	</g>
</g>
<g>
	<g>
		<path fill="#231F20" d="M51.488,66.362c-1.171,0-2.343-0.446-3.236-1.341L27.657,44.427c-1.788-1.787-1.788-4.686,0-6.472
			c1.785-1.788,4.686-1.788,6.472,0L54.724,58.55c1.788,1.787,1.788,4.686,0,6.472C53.831,65.916,52.659,66.362,51.488,66.362z"/>
	</g>
</g>
<g>
	<g>
		<path fill="#231F20" d="M30.893,66.362c-1.171,0-2.343-0.446-3.235-1.341c-1.788-1.786-1.788-4.685,0-6.472l20.595-20.595
			c1.786-1.788,4.687-1.788,6.472,0c1.788,1.786,1.788,4.685,0,6.472L34.129,65.021C33.236,65.916,32.063,66.362,30.893,66.362z"/>
	</g>
</g>
<g>
	<g>
		<path fill="#231F20" d="M113.274,66.362c-1.172,0-2.344-0.446-3.236-1.341L89.442,44.427c-1.787-1.787-1.787-4.686,0-6.472
			c1.786-1.788,4.687-1.788,6.473,0L116.51,58.55c1.788,1.787,1.788,4.686,0,6.472C115.617,65.916,114.445,66.362,113.274,66.362z"
			/>
	</g>
</g>
<g>
	<g>
		<path fill="#231F20" d="M92.679,66.362c-1.171,0-2.343-0.446-3.236-1.341c-1.787-1.786-1.787-4.685,0-6.472l20.596-20.595
			c1.785-1.788,4.687-1.788,6.472,0c1.788,1.786,1.788,4.685,0,6.472L95.915,65.021C95.021,65.916,93.85,66.362,92.679,66.362z"/>
	</g>
</g>
</svg>
