<?xml version="1.0" encoding="utf-8"?>
<!-- Generator: Adobe Illustrator 16.0.0, SVG Export Plug-In . SVG Version: 6.00 Build 0)  -->
<!DOCTYPE svg PUBLIC "-//W3C//DTD SVG 1.1//EN" "http://www.w3.org/Graphics/SVG/1.1/DTD/svg11.dtd">
<svg version="1.1" id="Layer_1" xmlns="http://www.w3.org/2000/svg" xmlns:xlink="http://www.w3.org/1999/xlink" x="0px" y="0px"
	 width="106.073px" height="144.213px" viewBox="0 0 106.073 144.213" enable-background="new 0 0 106.073 144.213"
	 xml:space="preserve">
<g>
	<path d="M74.831,144.213H31.242c-11.696,0-16.087-9.349-16.254-15.875L0.063,45.573c-0.21-1.166,0.107-2.366,0.867-3.275
		S2.814,40.863,4,40.863h98.073c1.186,0,2.31,0.525,3.069,1.435s1.077,2.109,0.867,3.275l-14.925,82.765
		C90.918,134.864,86.527,144.213,74.831,144.213z"/>
</g>
<g>
	<polygon points="102.073,16.26 89.813,16.26 77.555,4 28.518,4 16.26,16.26 4,16.26 	"/>
	<path d="M102.073,20.26H4c-2.209,0-4-1.791-4-4s1.791-4,4-4h10.603L25.688,1.172C26.439,0.422,27.457,0,28.518,0h49.037
		c1.061,0,2.078,0.422,2.828,1.172L91.471,12.26h10.603c2.209,0,4,1.791,4,4S104.282,20.26,102.073,20.26z"/>
</g>
</svg>
