<?xml version="1.0" encoding="utf-8"?>
<!-- Generator: Adobe Illustrator 16.0.0, SVG Export Plug-In . SVG Version: 6.00 Build 0)  -->
<!DOCTYPE svg PUBLIC "-//W3C//DTD SVG 1.1//EN" "http://www.w3.org/Graphics/SVG/1.1/DTD/svg11.dtd">
<svg version="1.1" id="Layer_1" xmlns="http://www.w3.org/2000/svg" xmlns:xlink="http://www.w3.org/1999/xlink" x="0px" y="0px"
	 width="144.441px" height="144.441px" viewBox="0 0 144.441 144.441" enable-background="new 0 0 144.441 144.441"
	 xml:space="preserve">
<g>
	<g>
		<circle fill="#F8E069" cx="72.221" cy="72.221" r="72.221"/>
	</g>
</g>
<g>
	<g>
		<path fill="#231F20" d="M115.782,45.281c-1.026,0-2.053-0.392-2.837-1.176c-8.893-8.893-17.711-9.142-17.798-9.142
			c-2.215,0-4.012-1.797-4.012-4.013c0-2.215,1.797-4.012,4.012-4.012c0.489,0,12.11,0.131,23.472,11.492
			c1.567,1.566,1.567,4.107,0,5.674C117.836,44.89,116.809,45.281,115.782,45.281z"/>
	</g>
</g>
<g>
	<g>
		<path fill="#231F20" d="M28.659,45.281c-1.026,0-2.054-0.392-2.837-1.176c-1.567-1.566-1.567-4.107,0-5.674
			C37.184,27.07,48.805,26.939,49.293,26.939c2.216,0,4.013,1.797,4.013,4.012c0,2.207-1.78,3.997-3.983,4.013
			c-0.422,0.008-8.974,0.29-17.826,9.142C30.712,44.89,29.686,45.281,28.659,45.281z"/>
	</g>
</g>
<g>
	<g>
		<path fill="#231F20" d="M87.123,69.354c-1.026,0-2.053-0.392-2.836-1.175c-1.568-1.566-1.568-4.107,0-5.674
			c11.361-11.362,22.981-11.493,23.471-11.493c2.216,0,4.013,1.797,4.013,4.013c0,2.206-1.78,3.996-3.983,4.012
			c-0.422,0.008-8.974,0.29-17.827,9.143C89.177,68.963,88.15,69.354,87.123,69.354z"/>
	</g>
</g>
<g>
	<g>
		<path fill="#231F20" d="M51.586,113.489c0,0,20.635-24.073,41.27,0C92.855,113.489,74.8,106.611,51.586,113.489z"/>
	</g>
	<g>
		<path fill="#231F20" d="M92.854,118.075c-0.541,0-1.09-0.097-1.619-0.296c-0.122-0.046-7.546-2.762-18.632-2.762
			c-6.657,0-13.291,0.965-19.713,2.868c-1.948,0.579-4.045-0.197-5.151-1.901c-1.105-1.707-0.956-3.936,0.366-5.479
			c0.431-0.501,10.708-12.3,24.881-12.3c8.393,0,16.159,4.035,23.09,11.996c0.856,0.833,1.388,1.999,1.388,3.288
			c0,2.513-2.02,4.554-4.525,4.586C92.91,118.075,92.882,118.075,92.854,118.075z"/>
	</g>
</g>
<g>
	<g>
		<path fill="#231F20" d="M103.172,60.184c0,2.85,2.311,5.159,5.159,5.159l0,0c2.849,0,5.158-2.31,5.158-5.159l0,0
			c0-2.849-2.31-5.158-5.158-5.158l0,0C105.482,55.025,103.172,57.335,103.172,60.184L103.172,60.184z"/>
	</g>
	<g>
		<path fill="#231F20" d="M108.331,69.354c-5.057,0-9.171-4.114-9.171-9.171s4.114-9.171,9.171-9.171s9.171,4.114,9.171,9.171
			S113.388,69.354,108.331,69.354z"/>
	</g>
</g>
<g>
	<g>
		<path fill="#231F20" d="M35.537,69.354c-1.026,0-2.053-0.392-2.837-1.175c-1.567-1.566-1.567-4.107,0-5.674
			c11.362-11.362,22.982-11.493,23.472-11.493c2.215,0,4.012,1.797,4.012,4.013c0,2.206-1.779,3.996-3.982,4.012
			c-0.423,0.008-8.975,0.29-17.827,9.143C37.59,68.963,36.563,69.354,35.537,69.354z"/>
	</g>
</g>
<g>
	<g>
		<path fill="#231F20" d="M51.586,60.184c0,2.85,2.31,5.159,5.159,5.159l0,0c2.849,0,5.158-2.31,5.158-5.159l0,0
			c0-2.849-2.31-5.158-5.158-5.158l0,0C53.896,55.025,51.586,57.335,51.586,60.184L51.586,60.184z"/>
	</g>
	<g>
		<path fill="#231F20" d="M56.745,69.354c-5.057,0-9.171-4.114-9.171-9.171s4.114-9.171,9.171-9.171s9.171,4.114,9.171,9.171
			S61.802,69.354,56.745,69.354z"/>
	</g>
</g>
</svg>
