<?xml version="1.0" encoding="utf-8"?>
<!-- Generator: Adobe Illustrator 16.0.0, SVG Export Plug-In . SVG Version: 6.00 Build 0)  -->
<!DOCTYPE svg PUBLIC "-//W3C//DTD SVG 1.1//EN" "http://www.w3.org/Graphics/SVG/1.1/DTD/svg11.dtd">
<svg version="1.1" id="Layer_1" xmlns="http://www.w3.org/2000/svg" xmlns:xlink="http://www.w3.org/1999/xlink" x="0px" y="0px"
	 width="144.666px" height="144.666px" viewBox="0 0 144.666 144.666" enable-background="new 0 0 144.666 144.666"
	 xml:space="preserve">
<g>
	<g>
		<circle fill="#F8E069" cx="72.333" cy="72.333" r="72.333"/>
	</g>
</g>
<g>
	<g>
		<path fill="#231F20" d="M113.666,45.352c-1.028,0-2.057-0.392-2.841-1.177c-8.907-8.907-17.739-9.156-17.825-9.156
			c-2.22,0-4.019-1.8-4.019-4.019c0-2.219,1.799-4.019,4.019-4.019c0.489,0,12.128,0.131,23.508,11.51
			c1.569,1.569,1.569,4.114,0,5.683C115.723,44.959,114.694,45.352,113.666,45.352z"/>
	</g>
</g>
<g>
	<g>
		<path fill="#231F20" d="M31,45.352c-1.028,0-2.057-0.392-2.842-1.177c-1.569-1.568-1.569-4.114,0-5.683
			c11.38-11.379,23.019-11.51,23.508-11.51c2.22,0,4.019,1.799,4.019,4.019c0,2.21-1.782,4.002-3.989,4.019
			c-0.423,0.008-8.987,0.29-17.854,9.156C33.057,44.959,32.028,45.352,31,45.352z"/>
	</g>
</g>
<g>
	<g>
		<path fill="#231F20" d="M46.5,71.185c-6.015,0-10.907-4.893-10.907-10.908c0-6.014,4.893-10.907,10.907-10.907
			c6.014,0,10.907,4.893,10.907,10.907C57.407,66.292,52.514,71.185,46.5,71.185z"/>
	</g>
</g>
<g>
	<g>
		<path fill="#231F20" d="M98.166,71.185c-6.014,0-10.907-4.893-10.907-10.908c0-6.014,4.894-10.907,10.907-10.907
			c6.015,0,10.907,4.893,10.907,10.907C109.073,66.292,104.181,71.185,98.166,71.185z"/>
	</g>
</g>
<g>
	<g>
		<path fill="#231F20" d="M73.697,118.259c-20.142,0-35.384-14.896-35.611-15.123c-1.794-1.793-1.794-4.702,0-6.495
			c1.791-1.794,4.695-1.792,6.491-0.004c1.188,1.177,28.223,27.291,55.509,0.004c1.792-1.794,4.702-1.794,6.494,0
			c1.794,1.793,1.794,4.702,0,6.495C95.237,114.478,83.846,118.259,73.697,118.259z"/>
	</g>
</g>
</svg>
