<?xml version="1.0" encoding="utf-8"?>
<!-- Generator: Adobe Illustrator 16.0.0, SVG Export Plug-In . SVG Version: 6.00 Build 0)  -->
<!DOCTYPE svg PUBLIC "-//W3C//DTD SVG 1.1//EN" "http://www.w3.org/Graphics/SVG/1.1/DTD/svg11.dtd">
<svg version="1.1" id="Layer_1" xmlns="http://www.w3.org/2000/svg" xmlns:xlink="http://www.w3.org/1999/xlink" x="0px" y="0px"
	 width="144.125px" height="144.125px" viewBox="0 0 144.125 144.125" enable-background="new 0 0 144.125 144.125"
	 xml:space="preserve">
<g>
	<g>
		<circle fill="#F8E069" cx="72.063" cy="72.063" r="72.063"/>
	</g>
</g>
<g>
	<g>
		<path fill="#231F20" d="M113.241,45.182c-1.024,0-2.049-0.391-2.831-1.173c-8.873-8.873-17.672-9.121-17.759-9.121
			c-2.21,0-4.003-1.793-4.003-4.004s1.793-4.003,4.003-4.003c0.488,0,12.083,0.13,23.42,11.467c1.564,1.563,1.564,4.099,0,5.661
			C115.29,44.791,114.266,45.182,113.241,45.182z"/>
	</g>
</g>
<g>
	<g>
		<path fill="#231F20" d="M30.884,45.182c-1.024,0-2.049-0.391-2.83-1.173c-1.564-1.563-1.564-4.099,0-5.661
			c11.337-11.337,22.932-11.467,23.419-11.467c2.211,0,4.004,1.792,4.004,4.003c0,2.202-1.776,3.988-3.975,4.004
			c-0.421,0.008-8.954,0.289-17.787,9.121C32.933,44.791,31.908,45.182,30.884,45.182z"/>
	</g>
</g>
<g>
	<g>
		<path fill="#231F20" d="M72.063,128.111c-19.553,0-35.459-15.907-35.459-35.46c0-2.526,2.048-4.575,4.575-4.575h61.768
			c2.526,0,4.575,2.049,4.575,4.575C107.521,112.204,91.615,128.111,72.063,128.111z"/>
	</g>
</g>
<g>
	<g>
		<path fill="#EE4036" d="M92.651,116.737l-1.178,1.003c-5.304,4.292-12.058,6.863-19.411,6.863c-7.911,0-15.127-2.975-20.592-7.866
			C51.471,116.737,72.063,108.871,92.651,116.737z"/>
	</g>
	<g>
		<path fill="#EE4036" d="M72.063,129.179c-8.74,0-17.137-3.208-23.644-9.032c-1.188-1.064-1.737-2.671-1.447-4.24
			s1.376-2.874,2.866-3.442c0.406-0.155,10.09-3.798,22.986-3.798c7.645,0,14.865,1.277,21.461,3.798
			c1.509,0.576,2.603,1.906,2.876,3.499c0.273,1.592-0.313,3.211-1.544,4.259l-1.178,1.003
			C88.07,126.38,80.154,129.179,72.063,129.179z M63.341,118.544c5.699,2,12.206,1.943,17.801-0.113
			c-2.687-0.409-5.463-0.614-8.317-0.614C69.336,117.816,66.12,118.122,63.341,118.544z"/>
	</g>
</g>
<g>
	<g>
		<path fill="#231F20" d="M102.943,76.639c-0.688,0-1.387-0.155-2.043-0.483L80.311,65.86c-1.549-0.774-2.529-2.36-2.529-4.093
			s0.98-3.317,2.529-4.093l20.59-10.294c2.257-1.131,5.009-0.215,6.139,2.046s0.214,5.009-2.046,6.14l-12.405,6.201l12.405,6.202
			c2.26,1.13,3.176,3.878,2.046,6.14C106.237,75.712,104.621,76.639,102.943,76.639z"/>
	</g>
</g>
<g>
	<g>
		<path fill="#231F20" d="M41.182,76.639c-1.678,0-3.294-0.927-4.096-2.529c-1.13-2.262-0.214-5.01,2.046-6.14l12.405-6.202
			l-12.405-6.201c-2.26-1.131-3.176-3.879-2.046-6.14s3.882-3.176,6.139-2.046l20.59,10.294c1.549,0.775,2.528,2.36,2.528,4.093
			s-0.979,3.318-2.528,4.093l-20.59,10.295C42.568,76.483,41.87,76.639,41.182,76.639z"/>
	</g>
</g>
</svg>
