<?xml version="1.0" encoding="utf-8"?>
<!-- Generator: Adobe Illustrator 16.0.0, SVG Export Plug-In . SVG Version: 6.00 Build 0)  -->
<!DOCTYPE svg PUBLIC "-//W3C//DTD SVG 1.1//EN" "http://www.w3.org/Graphics/SVG/1.1/DTD/svg11.dtd">
<svg version="1.1" id="Layer_1" xmlns="http://www.w3.org/2000/svg" xmlns:xlink="http://www.w3.org/1999/xlink" x="0px" y="0px"
	 width="143.833px" height="143.833px" viewBox="0 0 143.833 143.833" enable-background="new 0 0 143.833 143.833"
	 xml:space="preserve">
<g>
	<g>
		<circle fill="#F8E069" cx="71.917" cy="71.917" r="71.917"/>
	</g>
</g>
<g>
	<g>
		<path fill="#231F20" d="M92.464,99.313c-20.547,23.972-41.095,0-41.095,0H92.464z"/>
	</g>
	<g>
		<path fill="#231F20" d="M72.678,114.533c-14.115,0-24.347-11.749-24.775-12.248c-1.161-1.354-1.427-3.26-0.682-4.88
			s2.364-2.658,4.148-2.658h41.095c1.784,0,3.403,1.038,4.148,2.658c0.746,1.62,0.479,3.525-0.682,4.88
			C88.965,110.413,81.142,114.533,72.678,114.533z M65.446,103.88c2.206,0.908,4.652,1.521,7.231,1.521
			c2.32,0,4.608-0.509,6.857-1.521H65.446z"/>
	</g>
</g>
<g>
	<g>
		<path fill="#EF4E4F" d="M21.612,49.041c0-5.526,4.48-11.438,10.007-11.438c5.527,0,10.009,4.48,10.009,10.009
			c0-5.528,4.48-10.009,10.006-10.009c5.527,0,10.009,5.911,10.009,11.438c0,11.055-11.438,22.876-20.015,22.876
			S21.612,60.096,21.612,49.041z"/>
	</g>
</g>
<g>
	<g>
		<path fill="#EF4E4F" d="M84.067,49.505c0-5.415,4.389-11.205,9.805-11.205c5.414,0,9.805,4.39,9.805,9.805
			c0-5.415,4.39-9.805,9.805-9.805s9.804,5.79,9.804,11.205c0,10.829-11.205,22.412-19.608,22.412S84.067,60.334,84.067,49.505z"/>
	</g>
</g>
<g>
	<g>
		<path fill="#EE4036" d="M81.771,108.749c-4.523,2.271-9.037,2.191-12.559,1.462l0,0c-0.324-2.407,2.348-3.769,5.807-4.234
			C78.479,105.509,81.444,106.34,81.771,108.749z"/>
	</g>
	<g>
		<path fill="#EE4036" d="M73.553,115.233c-1.728,0-3.5-0.186-5.266-0.551c-1.898-0.393-3.341-1.94-3.6-3.861
			c-0.391-2.896,0.883-5.544,3.493-7.267c1.599-1.054,3.693-1.762,6.229-2.104c0.813-0.11,1.615-0.166,2.385-0.166
			c6.329,0,9.074,3.691,9.501,6.853c0.261,1.932-0.733,3.817-2.476,4.692C80.641,114.425,77.188,115.233,73.553,115.233z"/>
	</g>
</g>
</svg>
