<?xml version="1.0" encoding="utf-8"?>
<!-- Generator: Adobe Illustrator 16.0.0, SVG Export Plug-In . SVG Version: 6.00 Build 0)  -->
<!DOCTYPE svg PUBLIC "-//W3C//DTD SVG 1.1//EN" "http://www.w3.org/Graphics/SVG/1.1/DTD/svg11.dtd">
<svg version="1.1" id="Layer_1" xmlns="http://www.w3.org/2000/svg" xmlns:xlink="http://www.w3.org/1999/xlink" x="0px" y="0px"
	 width="144.191px" height="144.191px" viewBox="0 0 144.191 144.191" enable-background="new 0 0 144.191 144.191"
	 xml:space="preserve">
<g>
	<g>
		<circle fill="#F8E069" cx="72.096" cy="72.096" r="72.096"/>
	</g>
</g>
<g>
	<g>
		<path fill="#231F20" d="M113.293,45.203c-1.024,0-2.049-0.392-2.832-1.174c-8.877-8.878-17.681-9.126-17.767-9.126
			c-2.212,0-4.005-1.794-4.005-4.005c0-2.212,1.793-4.006,4.005-4.006c0.488,0,12.089,0.131,23.431,11.473
			c1.564,1.563,1.564,4.101,0,5.664C115.343,44.812,114.318,45.203,113.293,45.203z"/>
	</g>
</g>
<g>
	<g>
		<path fill="#231F20" d="M30.898,45.203c-1.025,0-2.05-0.392-2.832-1.174c-1.564-1.563-1.564-4.101,0-5.664
			c11.342-11.342,22.942-11.473,23.431-11.473c2.212,0,4.005,1.794,4.005,4.006c0,2.202-1.776,3.989-3.976,4.005
			c-0.422,0.008-8.959,0.29-17.796,9.126C32.947,44.812,31.923,45.203,30.898,45.203z"/>
	</g>
</g>
<g>
	<g>
		<path fill="#231F20" d="M46.348,67.519c-5.995,0-10.872-4.878-10.872-10.872s4.877-10.871,10.872-10.871
			c5.994,0,10.871,4.877,10.871,10.871S52.342,67.519,46.348,67.519z"/>
	</g>
</g>
<g>
	<g>
		<path fill="#231F20" d="M97.844,67.519c-5.994,0-10.871-4.878-10.871-10.872s4.877-10.871,10.871-10.871
			c5.995,0,10.872,4.877,10.872,10.871S103.839,67.519,97.844,67.519z"/>
	</g>
</g>
<g>
	<g>
		<path fill="#FAB36E" d="M48.556,82.219c-3.111,3.25-3,8.407,0.25,11.518l35.313,33.799c3.249,3.11,8.404,2.997,11.517-0.254l0,0
			c3.111-3.249,2.997-8.406-0.253-11.518l-35.31-33.798C56.823,78.854,51.667,78.968,48.556,82.219L48.556,82.219z"/>
	</g>
</g>
<g>
	<g>
		<path fill="#FAB36E" d="M95.634,82.219c3.111,3.25,2.999,8.407-0.251,11.518l-35.313,33.799c-3.248,3.11-8.403,2.997-11.516-0.254
			l0,0c-3.111-3.249-2.998-8.406,0.252-11.518l35.311-33.798C87.366,78.854,92.522,78.968,95.634,82.219L95.634,82.219z"/>
	</g>
</g>
</svg>
