<?xml version="1.0" encoding="utf-8"?>
<!-- Generator: Adobe Illustrator 16.0.0, SVG Export Plug-In . SVG Version: 6.00 Build 0)  -->
<!DOCTYPE svg PUBLIC "-//W3C//DTD SVG 1.1//EN" "http://www.w3.org/Graphics/SVG/1.1/DTD/svg11.dtd">
<svg version="1.1" id="Layer_1" xmlns="http://www.w3.org/2000/svg" xmlns:xlink="http://www.w3.org/1999/xlink" x="0px" y="0px"
	 width="144.25px" height="144.25px" viewBox="0 0 144.25 144.25" enable-background="new 0 0 144.25 144.25" xml:space="preserve">
<g>
	<g>
		<circle fill="#F8E069" cx="72.125" cy="72.125" r="72.125"/>
	</g>
</g>
<g>
	<g>
		<path fill="#231F20" d="M30.908,54.846c-0.545,0-1.1-0.111-1.631-0.349c-2.021-0.902-2.928-3.271-2.025-5.292
			c2.899-6.498,7.008-10.524,12.209-11.965c7.803-2.165,14.807,2.648,15.102,2.854c1.813,1.268,2.255,3.766,0.987,5.58
			c-1.264,1.808-3.747,2.252-5.562,1.001c-0.117-0.078-4.338-2.869-8.432-1.699c-2.768,0.786-5.117,3.308-6.986,7.496
			C33.904,53.962,32.441,54.846,30.908,54.846z"/>
	</g>
</g>
<g>
	<g>
		<path fill="#231F20" d="M113.342,54.846c-1.533,0-2.996-0.884-3.662-2.374c-1.879-4.211-4.245-6.737-7.032-7.51
			c-4.063-1.128-8.328,1.67-8.367,1.699c-1.816,1.267-4.312,0.826-5.579-0.987c-1.269-1.814-0.827-4.313,0.986-5.58
			c0.297-0.207,7.307-5.018,15.102-2.854c5.201,1.44,9.31,5.467,12.209,11.965c0.902,2.021-0.005,4.39-2.025,5.292
			C114.441,54.734,113.887,54.846,113.342,54.846z"/>
	</g>
</g>
<g>
	<g>
		<path fill="#231F20" d="M46.366,75.201c-5.997,0-10.876-4.88-10.876-10.877c0-5.996,4.879-10.876,10.876-10.876
			s10.876,4.88,10.876,10.876C57.242,70.321,52.363,75.201,46.366,75.201z"/>
	</g>
</g>
<g>
	<g>
		<path fill="#231F20" d="M97.884,75.201c-5.997,0-10.876-4.88-10.876-10.877c0-5.996,4.879-10.876,10.876-10.876
			s10.876,4.88,10.876,10.876C108.76,70.321,103.881,75.201,97.884,75.201z"/>
	</g>
</g>
<g>
	<g>
		<path fill="#231F20" d="M92.732,117.919c-1.172,0-2.345-0.447-3.238-1.342c-16.767-16.765-32.957-1.754-34.75,0.011
			c-1.795,1.771-4.692,1.764-6.47-0.027c-1.777-1.79-1.778-4.676,0.006-6.459c8.247-8.249,28.83-18.863,47.689,0
			c1.789,1.788,1.789,4.688,0,6.476C95.076,117.472,93.904,117.919,92.732,117.919z"/>
	</g>
</g>
<g>
	<g>
		<path fill="#5DCAEB" d="M116.153,77.415c3.38,5.742,8.507,14.364,8.507,18.624c0,6.604-5.353,11.957-11.957,11.957
			c-6.604,0-11.957-5.353-11.957-11.957c0-4.215,4.87-12.789,8.393-18.442C109.139,77.597,112.703,71.553,116.153,77.415z"/>
	</g>
</g>
</svg>
