<svg xmlns="http://www.w3.org/2000/svg" xmlns:xlink="http://www.w3.org/1999/xlink" width="119" height="137" viewBox="0 0 119 137">
  <defs>
    <clipPath id="clip-Sharehub-invert">
      <rect width="119" height="137"/>
    </clipPath>
  </defs>
  <g id="Sharehub-invert" clip-path="url(#clip-Sharehub-invert)">
    <path id="Tracé_11" data-name="Tracé 11" d="M-720.862,511.222c-.132-.014-.258-.034-.218-.22C-720.932,511-720.871,511.085-720.862,511.222Z" transform="translate(779.835 -387.89)" fill="#fff"/>
    <path id="Tracé_12" data-name="Tracé 12" d="M-717.857,513.876c-.212-.018-.271-.159-.275-.344C-717.992,513.607-717.77,513.618-717.857,513.876Z" transform="translate(777.566 -389.832)" fill="#fff"/>
    <g id="Groupe_12" data-name="Groupe 12" transform="translate(1142.813 -143.079)">
      <g id="Groupe_7" data-name="Groupe 7" transform="translate(-1115.746 175.383)">
        <path id="Tracé_1" data-name="Tracé 1" d="M-819.737,127.279l.243.194c0,.1.033.172.145.181l-.006-.008c0,.16.123.251.211.357a10.044,10.044,0,0,0,11.084,2.978,10.111,10.111,0,0,0,6.684-9.4q.01-23.594.02-47.188a.609.609,0,0,0,0-.122c-.121-.571.161-.648.665-.646,2.712.015,5.425-.007,8.138-.016a.348.348,0,0,0,.052.052,16.33,16.33,0,0,0,4.834,8.966,6.97,6.97,0,0,0,1.995,1.554l0,0c-.011.1.046.128.133.124l-.011,0a.168.168,0,0,0,.17.134l.544.5c.022.071.054.128.143.112l-.007-.007c.024.23.227.325.364.462a16.875,16.875,0,0,0,8.212,4.5,1.353,1.353,0,0,1,.042.239c0,2.9-.009,5.793.015,8.689,0,.5-.271.444-.58.439a28.466,28.466,0,0,1-11.968-2.86,31.307,31.307,0,0,1-4.1-2.418,1.475,1.475,0,0,0-.079.758q-.006,11.749,0,23.5a23.228,23.228,0,0,1-.315,3.772,22.152,22.152,0,0,1-22.64,18.446,22.207,22.207,0,0,1-10.658-3.163c-.158-.094-.287-.307-.527-.2l.005,0c.017-.147-.067-.141-.167-.11l-.9-.837c-.037-.075-.07-.155-.173-.158l.008.009c0-.086-.038-.136-.131-.13l.007.008c.007-.091-.023-.147-.127-.131l.006.005c.029-.144-.085-.221-.158-.311a21.517,21.517,0,0,1-4.587-18.436,21.585,21.585,0,0,1,11.973-15.528,21.71,21.71,0,0,1,9.169-2.263.442.442,0,0,0,.053.053c-.009.224-.025.447-.026.671,0,2.712-.011,5.425.008,8.137,0,.469-.057.632-.581.48a8.331,8.331,0,0,0-3.569-.253,9.757,9.757,0,0,0-8.321,6.658,9.665,9.665,0,0,0,2.356,10.487,5.7,5.7,0,0,0,2.251,1.617l-.006-.007C-819.873,127.261-819.807,127.271-819.737,127.279Z" transform="translate(837.128 -70.576)" fill="#fff"/>
        <path id="Tracé_3" data-name="Tracé 3" d="M-690.2,51.883c-2.713.009-5.425.032-8.137.016-.5,0-.786.074-.665.646a.609.609,0,0,1,0,.122l-.02,47.188a10.111,10.111,0,0,1-6.684,9.4,10.044,10.044,0,0,1-11.084-2.978c-.088-.106-.21-.2-.211-.357.2-.131.343.033.5.1a10.078,10.078,0,0,0,13.966-9.406q.008-23.475-.012-46.95c0-.611.115-.817.78-.81,3.57.037,7.141.026,10.712.007.465,0,.658.1.632.595A17.258,17.258,0,0,0-690.2,51.883Z" transform="translate(734.773 -48.852)" fill="#fff"/>
        <path id="Tracé_4" data-name="Tracé 4" d="M-837.038,261.811a21.709,21.709,0,0,0-9.169,2.263A21.585,21.585,0,0,0-858.18,279.6a21.518,21.518,0,0,0,4.587,18.436c.072.09.186.167.158.311-.293.106-.419-.155-.581-.29a21.691,21.691,0,0,1-7.947-14.274,22.145,22.145,0,0,1,17.729-24.615,22.624,22.624,0,0,1,6.753-.261c.369.039.489.157.476.52C-837.034,260.222-837.029,261.017-837.038,261.811Z" transform="translate(862.15 -233.068)" fill="#fff"/>
        <g id="Groupe_5" data-name="Groupe 5" transform="translate(10.181 3.055)">
          <path id="Tracé_2" data-name="Tracé 2" d="M-779,254.416c.24-.1.37.11.527.2a22.208,22.208,0,0,0,10.658,3.163,22.152,22.152,0,0,0,22.64-18.446,23.221,23.221,0,0,0,.315-3.772q0-11.749,0-23.5a1.477,1.477,0,0,1,.079-.758,31.3,31.3,0,0,0,4.1,2.418,28.467,28.467,0,0,0,11.968,2.86c.309.006.584.063.58-.439-.024-2.9-.012-5.793-.015-8.689a1.353,1.353,0,0,0-.042-.239l.094-.039a10.7,10.7,0,0,0,3.012.388c.389.01.472.134.471.5q-.018,5.538,0,11.077c0,.464-.169.521-.564.512a28.507,28.507,0,0,1-13.693-3.773c-.809-.462-1.59-.974-2.483-1.524v.754q0,11.75,0,23.5a21.46,21.46,0,0,1-3.478,11.97,21.532,21.532,0,0,1-15.93,10.083,21.585,21.585,0,0,1-17.8-5.7C-778.721,254.807-778.954,254.684-779,254.416Z" transform="translate(778.998 -190.85)" fill="#fff"/>
          <path id="Tracé_5" data-name="Tracé 5" d="M-758.695,311.664a5.7,5.7,0,0,1-2.251-1.617A9.664,9.664,0,0,1-763.3,299.56a9.756,9.756,0,0,1,8.321-6.658,8.332,8.332,0,0,1,3.569.253c.525.153.585-.011.581-.48-.018-2.712-.01-5.424-.008-8.137,0-.224.016-.447.025-.671a19.29,19.29,0,0,1,2.987.094c.424.041.531.174.528.587-.019,2.507-.01,5.014-.01,7.521v4.27a10.685,10.685,0,0,0-3.025-.455,9.79,9.79,0,0,0-8.734,5.132A9.694,9.694,0,0,0-759,311.08C-758.9,311.272-758.718,311.427-758.695,311.664Z" transform="translate(765.795 -258.125)" fill="#fff"/>
          <path id="Tracé_6" data-name="Tracé 6" d="M-490.864,84.35a6.968,6.968,0,0,1-1.995-1.554,16.331,16.331,0,0,1-4.834-8.966c.935-.008,1.871-.011,2.806-.028.264,0,.406.045.413.36a16.578,16.578,0,0,0,3.6,10.03C-490.847,84.226-490.866,84.3-490.864,84.35Z" transform="translate(532.137 -73.801)" fill="#fff"/>
        </g>
        <path id="Tracé_7" data-name="Tracé 7" d="M-425.358,171.689l-.094.039a16.875,16.875,0,0,1-8.212-4.5c-.137-.136-.341-.232-.364-.462.234-.1.379.093.543.182a16.12,16.12,0,0,0,7.617,2.063c.428.006.5.175.5.546C-425.388,170.267-425.365,170.978-425.358,171.689Z" transform="translate(486.448 -152.302)" fill="#fff"/>
        <path id="Tracé_8" data-name="Tracé 8" d="M-441.841,159.922c-.087,0-.144-.023-.133-.124C-441.841,159.744-441.829,159.821-441.841,159.922Z" transform="translate(493.422 -146.198)" fill="#fff"/>
        <path id="Tracé_9" data-name="Tracé 9" d="M-440.8,160.981a.168.168,0,0,1-.17-.134C-440.851,160.811-440.834,160.906-440.8,160.981Z" transform="translate(492.541 -147.127)" fill="#fff"/>
        <path id="Tracé_10" data-name="Tracé 10" d="M-434.994,166.138c-.089.016-.121-.041-.143-.112C-435.041,166-434.963,166-434.994,166.138Z" transform="translate(487.422 -151.667)" fill="#fff"/>
        <path id="Tracé_11-2" data-name="Tracé 11" d="M-720.969,511.118c-.07-.008-.136-.018-.115-.116C-721.006,511-720.974,511.046-720.969,511.118Z" transform="translate(738.36 -454.415)" fill="#fff"/>
        <path id="Tracé_12-2" data-name="Tracé 12" d="M-717.987,513.713c-.112-.009-.143-.084-.145-.181C-718.058,513.572-717.941,513.577-717.987,513.713Z" transform="translate(735.766 -456.635)" fill="#fff"/>
        <path id="Tracé_13" data-name="Tracé 13" d="M-791.217,581.951c.1-.016.134.04.127.131C-791.21,582.114-791.288,582.1-791.217,581.951Z" transform="translate(799.926 -516.674)" fill="#fff"/>
        <path id="Tracé_14" data-name="Tracé 14" d="M-790.155,582.977c.092-.006.13.044.13.13C-790.121,583.118-790.207,583.117-790.155,582.977Z" transform="translate(798.984 -517.577)" fill="#fff"/>
        <path id="Tracé_15" data-name="Tracé 15" d="M-789.046,583.972c.1,0,.136.083.173.158C-788.972,584.122-789.054,584.1-789.046,583.972Z" transform="translate(797.998 -518.45)" fill="#fff"/>
        <path id="Tracé_16" data-name="Tracé 16" d="M-780.32,591.968c.1-.032.184-.038.167.11C-780.251,592.105-780.291,592.045-780.32,591.968Z" transform="translate(790.34 -525.451)" fill="#fff"/>
      </g>
    </g>
  </g>
</svg>
