<svg xmlns="http://www.w3.org/2000/svg" xmlns:xlink="http://www.w3.org/1999/xlink" width="119" height="137" viewBox="0 0 119 137">
  <defs>
    <clipPath id="clip-Sharehub_white">
      <rect width="119" height="137"/>
    </clipPath>
  </defs>
  <g id="Sharehub_white" clip-path="url(#clip-Sharehub_white)">
    <path id="Tracé_11" data-name="Tracé 11" d="M-720.862,511.222c-.132-.014-.258-.034-.218-.22C-720.932,511-720.871,511.085-720.862,511.222Z" transform="translate(779.835 -387.89)" fill="#fff"/>
    <path id="Tracé_12" data-name="Tracé 12" d="M-717.857,513.876c-.212-.018-.271-.159-.275-.344C-717.992,513.607-717.77,513.618-717.857,513.876Z" transform="translate(777.566 -389.832)" fill="#fff"/>
    <g id="Groupe_12" data-name="Groupe 12" transform="translate(1126.304 -161.757)">
      <g id="Groupe_7" data-name="Groupe 7" transform="translate(-1115.746 175.383)">
        <path id="Tracé_1" data-name="Tracé 1" d="M-812.63,154.721l.367.293c0,.147.05.259.219.274l-.01-.012c0,.241.186.379.319.54a15.18,15.18,0,0,0,16.751,4.5,15.28,15.28,0,0,0,10.1-14.21q.015-35.657.031-71.315a.918.918,0,0,0,0-.185c-.182-.863.244-.98,1-.976,4.1.023,8.2-.011,12.3-.025a.524.524,0,0,0,.079.079,24.679,24.679,0,0,0,7.305,13.551,10.535,10.535,0,0,0,3.015,2.349l-.007-.007c-.016.152.07.193.2.187l-.017-.006a.254.254,0,0,0,.257.2l.822.762c.033.107.081.193.216.169l-.011-.011c.036.348.343.492.55.7a25.5,25.5,0,0,0,12.411,6.8,2.049,2.049,0,0,1,.064.361c0,4.377-.014,8.755.022,13.132.006.759-.41.672-.877.663a43.022,43.022,0,0,1-18.087-4.322,47.314,47.314,0,0,1-6.2-3.654,2.23,2.23,0,0,0-.119,1.146q-.009,17.756,0,35.512a35.116,35.116,0,0,1-.475,5.7A33.478,33.478,0,0,1-806.621,174.8a33.562,33.562,0,0,1-16.108-4.781c-.238-.142-.434-.464-.8-.308l.008.007c.026-.223-.1-.213-.253-.166l-1.353-1.265c-.056-.113-.106-.234-.261-.239l.013.013c0-.13-.058-.205-.2-.2l.011.011c.01-.138-.035-.222-.192-.2l.009.008c.043-.218-.129-.334-.238-.471-6.584-8.225-9.011-17.561-6.933-27.862,2.161-10.711,8.381-18.5,18.095-23.467a32.81,32.81,0,0,1,13.857-3.42.68.68,0,0,0,.08.08c-.013.338-.038.676-.039,1.014,0,4.1-.016,8.2.012,12.3,0,.708-.086.956-.879.725a12.591,12.591,0,0,0-5.394-.382c-6.156.9-10.484,4.238-12.576,10.062-2.129,5.929-.745,11.284,3.56,15.85a8.613,8.613,0,0,0,3.4,2.443l-.009-.01C-812.836,154.694-812.735,154.71-812.63,154.721Z" transform="translate(838.913 -69.026)" fill="#fff"/>
        <path id="Tracé_3" data-name="Tracé 3" d="M-676.5,53.433c-4.1.014-8.2.048-12.3.025-.761,0-1.187.112-1.005.976a.923.923,0,0,1,0,.185q-.015,35.657-.03,71.315a15.281,15.281,0,0,1-10.1,14.21,15.18,15.18,0,0,1-16.751-4.5c-.133-.161-.317-.3-.319-.54.3-.2.519.049.754.145a15.231,15.231,0,0,0,21.107-14.215q.012-35.478-.018-70.955c0-.924.174-1.235,1.179-1.225,5.4.056,10.793.04,16.189.011.7,0,.994.157.955.9A26.116,26.116,0,0,0-676.5,53.433Z" transform="translate(743.86 -48.852)" fill="#fff"/>
        <path id="Tracé_4" data-name="Tracé 4" d="M-824.2,263.366a32.811,32.811,0,0,0-13.858,3.42c-9.714,4.964-15.933,12.756-18.095,23.467-2.078,10.3.349,19.637,6.933,27.862.109.137.282.252.239.471-.443.16-.633-.234-.878-.439a32.781,32.781,0,0,1-12.01-21.573,33.467,33.467,0,0,1,26.794-37.2,34.188,34.188,0,0,1,10.206-.394c.557.059.739.237.719.786C-824.193,260.965-824.185,262.166-824.2,263.366Z" transform="translate(862.15 -219.925)" fill="#fff"/>
        <g id="Groupe_5" data-name="Groupe 5" transform="translate(15.387 4.617)">
          <path id="Tracé_2" data-name="Tracé 2" d="M-779,278.568c.363-.156.558.166.8.308a33.562,33.562,0,0,0,16.108,4.781,33.478,33.478,0,0,0,34.216-27.878,35.109,35.109,0,0,0,.475-5.7q0-17.756,0-35.512a2.23,2.23,0,0,1,.119-1.146,47.3,47.3,0,0,0,6.2,3.654,43.022,43.022,0,0,0,18.087,4.322c.467.009.883.1.877-.663-.036-4.377-.018-8.755-.022-13.132a2.043,2.043,0,0,0-.064-.361c.047-.019.095-.039.142-.06a16.176,16.176,0,0,0,4.553.587c.587.016.713.2.712.752q-.028,8.37.006,16.74c0,.7-.255.787-.852.773a43.083,43.083,0,0,1-20.694-5.7c-1.223-.7-2.4-1.472-3.752-2.3v1.139q0,17.758-.005,35.515a32.433,32.433,0,0,1-5.256,18.09c-5.7,8.713-13.714,13.944-24.076,15.239-10.243,1.28-19.222-1.72-26.9-8.618C-778.58,279.158-778.932,278.973-779,278.568Z" transform="translate(778.998 -182.499)" fill="#fff"/>
          <path id="Tracé_5" data-name="Tracé 5" d="M-756.006,325.889a8.611,8.611,0,0,1-3.4-2.443c-4.306-4.565-5.69-9.921-3.56-15.85,2.092-5.824,6.419-9.159,12.576-10.062a12.593,12.593,0,0,1,5.394.382c.793.231.884-.017.879-.725-.028-4.1-.015-8.2-.012-12.3,0-.338.025-.676.039-1.014a29.151,29.151,0,0,1,4.514.141c.641.061.8.263.8.887-.029,3.788-.014,7.577-.014,11.366v6.454a16.15,16.15,0,0,0-4.572-.688c-5.816.172-10.32,2.71-13.2,7.756-2.866,5.024-2.717,10.156.094,15.21C-756.311,325.3-756.041,325.531-756.006,325.889Z" transform="translate(766.737 -244.975)" fill="#fff"/>
          <path id="Tracé_6" data-name="Tracé 6" d="M-487.373,89.744a10.531,10.531,0,0,1-3.015-2.349,24.681,24.681,0,0,1-7.306-13.551c1.414-.013,2.827-.017,4.241-.043.4-.007.614.068.624.544A25.055,25.055,0,0,0-487.387,89.5C-487.346,89.556-487.376,89.663-487.373,89.744Z" transform="translate(549.748 -73.801)" fill="#fff"/>
        </g>
        <path id="Tracé_7" data-name="Tracé 7" d="M-420.925,174.221q-.07.031-.142.06a25.5,25.5,0,0,1-12.411-6.8c-.208-.206-.515-.35-.55-.7.354-.154.573.14.82.275a24.363,24.363,0,0,0,11.512,3.117c.647.008.763.265.75.826C-420.97,172.072-420.935,173.147-420.925,174.221Z" transform="translate(513.251 -144.922)" fill="#fff"/>
        <path id="Tracé_8" data-name="Tracé 8" d="M-441.772,159.994c-.131.006-.217-.035-.2-.187C-441.772,159.726-441.755,159.842-441.772,159.994Z" transform="translate(519.728 -139.253)" fill="#fff"/>
        <path id="Tracé_9" data-name="Tracé 9" d="M-440.714,161.053a.254.254,0,0,1-.257-.2C-440.789,160.8-440.764,160.941-440.714,161.053Z" transform="translate(518.91 -140.116)" fill="#fff"/>
        <path id="Tracé_10" data-name="Tracé 10" d="M-434.921,166.2c-.135.024-.183-.062-.216-.169C-434.992,166-434.874,165.992-434.921,166.2Z" transform="translate(514.155 -144.333)" fill="#fff"/>
        <path id="Tracé_11-2" data-name="Tracé 11" d="M-720.908,511.177c-.105-.011-.205-.027-.174-.175C-720.964,511-720.915,511.068-720.908,511.177Z" transform="translate(747.191 -425.482)" fill="#fff"/>
        <path id="Tracé_12-2" data-name="Tracé 12" d="M-717.913,513.805c-.169-.014-.216-.126-.219-.273C-718.02,513.592-717.844,513.6-717.913,513.805Z" transform="translate(744.782 -427.544)" fill="#fff"/>
        <path id="Tracé_13" data-name="Tracé 13" d="M-791.2,581.952c.157-.024.2.061.192.2C-791.192,582.2-791.311,582.185-791.2,581.952Z" transform="translate(804.365 -483.3)" fill="#fff"/>
        <path id="Tracé_14" data-name="Tracé 14" d="M-790.146,582.978c.14-.009.2.066.2.2C-790.1,583.19-790.225,583.189-790.146,582.978Z" transform="translate(803.49 -484.138)" fill="#fff"/>
        <path id="Tracé_15" data-name="Tracé 15" d="M-789.046,583.972c.155.005.2.125.261.239C-788.933,584.2-789.057,584.159-789.046,583.972Z" transform="translate(802.574 -484.949)" fill="#fff"/>
        <path id="Tracé_16" data-name="Tracé 16" d="M-780.32,591.977c.152-.048.278-.057.253.166C-780.216,592.185-780.276,592.094-780.32,591.977Z" transform="translate(795.463 -491.45)" fill="#fff"/>
      </g>
    </g>
  </g>
</svg>
