<?xml version="1.0" encoding="utf-8"?>
<!-- Generator: Adobe Illustrator 16.0.0, SVG Export Plug-In . SVG Version: 6.00 Build 0)  -->
<!DOCTYPE svg PUBLIC "-//W3C//DTD SVG 1.1//EN" "http://www.w3.org/Graphics/SVG/1.1/DTD/svg11.dtd">
<svg version="1.1" id="Layer_1" xmlns="http://www.w3.org/2000/svg" xmlns:xlink="http://www.w3.org/1999/xlink" x="0px" y="0px"
	 width="144px" height="144px" viewBox="0 0 144 144" enable-background="new 0 0 144 144" xml:space="preserve">
<g>
	<g>
		<circle fill="#F8E069" cx="72" cy="72" r="72"/>
	</g>
</g>
<g>
	<g>
		<path fill="#231F20" d="M112.209,32.862c-1.381,0-2.725-0.717-3.466-1.998c-4.964-8.577-12.893-4.699-14.431-3.833
			c-1.913,1.078-4.354,0.412-5.445-1.499c-1.089-1.911-0.444-4.336,1.46-5.438c0.405-0.234,4.104-2.302,8.966-2.599
			c6.826-0.419,12.641,2.908,16.375,9.362c1.105,1.912,0.453,4.359-1.459,5.466C113.578,32.688,112.89,32.862,112.209,32.862z"/>
	</g>
</g>
<g>
	<g>
		<path fill="#231F20" d="M30.854,32.862c-0.681,0-1.369-0.174-2-0.539c-1.911-1.106-2.564-3.554-1.458-5.466
			c3.735-6.454,9.567-9.782,16.375-9.362c4.86,0.297,8.56,2.365,8.965,2.599c1.912,1.106,2.565,3.554,1.459,5.465
			c-1.103,1.906-3.54,2.561-5.448,1.469c-1.547-0.869-9.467-4.733-14.427,3.836C33.578,32.145,32.234,32.86,30.854,32.862z"/>
	</g>
</g>
<g>
	<g>
		<path fill="#231F20" d="M98.906,74.192c-5.787,0-10.576-5.712-11.916-14.214c-1.444-9.157,2.017-16.516,8.229-17.497
			c0.431-0.068,0.867-0.103,1.302-0.103c5.788,0,10.577,5.713,11.917,14.215c0.563,3.574,0.368,7.138-0.552,10.038
			c-1.326,4.18-4.125,6.898-7.68,7.458C99.779,74.157,99.342,74.192,98.906,74.192z"/>
	</g>
</g>
<g>
	<g>
		<path fill="#231F20" d="M44.908,74.192C44.908,74.192,44.908,74.192,44.908,74.192c-0.436,0-0.873-0.035-1.302-0.103
			c-3.553-0.559-6.352-3.278-7.679-7.458c-0.92-2.9-1.116-6.465-0.552-10.039c1.339-8.501,6.129-14.214,11.918-14.214
			c0.434,0,0.87,0.035,1.299,0.102c6.213,0.982,9.675,8.339,8.233,17.497C55.482,68.48,50.693,74.192,44.908,74.192z"/>
	</g>
</g>
<g>
	<g>
		<ellipse fill="#231F20" cx="72" cy="105.714" rx="20.571" ry="24.952"/>
	</g>
</g>
</svg>
