<?xml version="1.0" encoding="utf-8"?>
<!-- Generator: Adobe Illustrator 16.0.0, SVG Export Plug-In . SVG Version: 6.00 Build 0)  -->
<!DOCTYPE svg PUBLIC "-//W3C//DTD SVG 1.1//EN" "http://www.w3.org/Graphics/SVG/1.1/DTD/svg11.dtd">
<svg version="1.1" id="Layer_1" xmlns="http://www.w3.org/2000/svg" xmlns:xlink="http://www.w3.org/1999/xlink" x="0px" y="0px"
	 width="144.233px" height="144.233px" viewBox="0 0 144.233 144.233" enable-background="new 0 0 144.233 144.233"
	 xml:space="preserve">
<g>
	<g>
		<circle fill="#F8E069" cx="72.117" cy="72.117" r="72.117"/>
	</g>
</g>
<g>
	<g>
		<path fill="#231F20" d="M113.326,45.216c-1.025,0-2.05-0.391-2.833-1.174c-8.88-8.88-17.686-9.128-17.771-9.128
			c-2.213,0-4.007-1.793-4.007-4.007s1.794-4.007,4.007-4.007c0.488,0,12.092,0.13,23.438,11.477c1.564,1.564,1.564,4.101,0,5.665
			C115.377,44.825,114.352,45.216,113.326,45.216z"/>
	</g>
</g>
<g>
	<g>
		<path fill="#231F20" d="M30.907,45.216c-1.025,0-2.05-0.391-2.833-1.174c-1.564-1.564-1.564-4.101,0-5.665
			C39.42,27.03,51.023,26.9,51.512,26.9c2.213,0,4.007,1.793,4.007,4.007c0,2.202-1.777,3.991-3.978,4.007
			c-0.422,0.009-8.961,0.288-17.801,9.128C32.957,44.825,31.933,45.216,30.907,45.216z"/>
	</g>
</g>
<g>
	<g>
		<path fill="#231F20" d="M46.36,66.394c-5.996,0-10.874-4.879-10.874-10.875s4.878-10.875,10.874-10.875
			c5.997,0,10.875,4.879,10.875,10.875S52.357,66.394,46.36,66.394z"/>
	</g>
</g>
<g>
	<g>
		<path fill="#231F20" d="M97.873,66.394c-5.997,0-10.875-4.879-10.875-10.875s4.878-10.875,10.875-10.875
			c5.996,0,10.874,4.879,10.874,10.875S103.869,66.394,97.873,66.394z"/>
	</g>
</g>
<g>
	<g>
		<path fill="#231F20" d="M92.722,104.169h-41.21c-2.528,0-4.578-2.051-4.578-4.579s2.05-4.579,4.578-4.579h41.21
			c2.528,0,4.579,2.051,4.579,4.579S95.25,104.169,92.722,104.169z"/>
	</g>
</g>
<g>
	<g>
		<path fill="#EE4036" d="M53.115,99.304v13.622c0,10.495,8.507,19.002,19.002,19.002c10.494,0,19.001-8.507,19.001-19.002V99.304"
			/>
	</g>
</g>
<g>
	<g>
		<g>
			<path fill="#F37D5C" d="M76.695,99.304v12.973c0,2.529-2.05,4.579-4.578,4.579c-2.529,0-4.579-2.05-4.579-4.579V99.304"/>
		</g>
	</g>
</g>
</svg>
