<?xml version="1.0" encoding="utf-8"?>
<!-- Generator: Adobe Illustrator 16.0.0, SVG Export Plug-In . SVG Version: 6.00 Build 0)  -->
<!DOCTYPE svg PUBLIC "-//W3C//DTD SVG 1.1//EN" "http://www.w3.org/Graphics/SVG/1.1/DTD/svg11.dtd">
<svg version="1.1" id="Layer_1" xmlns="http://www.w3.org/2000/svg" xmlns:xlink="http://www.w3.org/1999/xlink" x="0px" y="0px"
	 width="143.886px" height="115.923px" viewBox="0 0 143.886 115.923" enable-background="new 0 0 143.886 115.923"
	 xml:space="preserve">
<g>
	<g>
		<g>
			<rect x="62.033" y="2.569" fill="#FFFFFF" width="79.283" height="66.07"/>
		</g>
		<g>
			<path fill="#1B75BB" d="M141.316,71.208H62.033c-1.419,0-2.57-1.15-2.57-2.569V2.569c0-1.418,1.151-2.569,2.57-2.569h79.283
				c1.418,0,2.569,1.151,2.569,2.569v66.07C143.886,70.058,142.734,71.208,141.316,71.208z M64.602,66.07h74.146V5.139H64.602V66.07
				z"/>
		</g>
	</g>
	<g>
		<g>
			<path fill="#1B75BB" d="M128.102,57.995H75.246c-0.948,0-1.818-0.522-2.265-1.357c-0.447-0.835-0.397-1.849,0.128-2.638
				l13.214-19.821c0.427-0.64,1.118-1.056,1.884-1.132c0.773-0.069,1.527,0.196,2.07,0.74l4.391,4.391l11.476-17.213
				c0.488-0.733,1.312-1.17,2.199-1.144c0.88,0.021,1.688,0.492,2.142,1.247l19.821,33.035c0.477,0.794,0.488,1.782,0.032,2.588
				C129.883,57.497,129.028,57.995,128.102,57.995z M80.047,52.856h43.518l-15.397-25.662L97.205,43.637
				c-0.428,0.64-1.118,1.056-1.885,1.132c-0.765,0.074-1.525-0.195-2.07-0.741l-4.39-4.39L80.047,52.856z"/>
		</g>
	</g>
	<g>
		<g>
			<path fill="#1B75BB" d="M88.461,31.567c-5.061,0-9.177-4.117-9.177-9.177s4.116-9.176,9.177-9.176
				c5.059,0,9.176,4.116,9.176,9.176S93.52,31.567,88.461,31.567z M88.461,18.353c-2.227,0-4.038,1.812-4.038,4.037
				c0,2.227,1.812,4.038,4.038,4.038c2.226,0,4.037-1.812,4.037-4.038C92.498,20.165,90.687,18.353,88.461,18.353z"/>
		</g>
	</g>
	<g>
		<g>
			<path fill="#FFFFFF" d="M2.569,60.498v39.642c0,0,0,13.214,13.214,13.214h66.07c0,0,13.215,0,13.215-13.214V60.498
				c0,0,0-13.214-13.215-13.214c0,0-6.607,0-6.607-6.607c0,0,0-6.607-6.606-6.607H55.426c0,0-6.607,0-6.607,6.607
				c0,0,0,6.607-6.606,6.607H15.783C15.783,47.284,2.569,47.284,2.569,60.498z"/>
		</g>
		<g>
			<path fill="#652D90" d="M81.854,115.923h-66.07C3.299,115.923,0,105.6,0,100.14V60.498c0-12.484,10.324-15.783,15.783-15.783
				h26.429c3.574,0,4.014-2.84,4.037-4.061c0-6.709,5.488-9.153,9.177-9.153H68.64c6.732,0,9.176,5.488,9.176,9.176
				c0,3.575,2.84,4.015,4.061,4.038c12.463,0,15.761,10.324,15.761,15.783v39.642C97.637,112.625,87.313,115.923,81.854,115.923z
				 M15.783,49.854c-1.08,0.009-10.645,0.389-10.645,10.645v39.642c0.009,1.08,0.389,10.645,10.645,10.645h66.063
				c1.108-0.01,10.651-0.4,10.651-10.645V60.498c-0.009-1.08-0.389-10.645-10.645-10.645c-3.688,0-9.177-2.444-9.177-9.176
				c-0.022-1.198-0.462-4.038-4.037-4.038H55.426c-1.198,0.023-4.038,0.463-4.038,4.038c0,3.688-2.443,9.176-9.176,9.176H15.783z"/>
		</g>
	</g>
	<g>
		<g>
			<path fill="#652D90" d="M26.795,49.854c-1.418,0-2.568-1.15-2.568-2.569v-4.038h-3.671v4.038c0,1.419-1.151,2.569-2.57,2.569
				s-2.569-1.15-2.569-2.569v-6.607c0-1.419,1.15-2.569,2.569-2.569h8.81c1.419,0,2.569,1.15,2.569,2.569v6.607
				C29.364,48.703,28.214,49.854,26.795,49.854z"/>
		</g>
	</g>
	<g>
		<g>
			<circle fill="#652D90" cx="19.087" cy="63.802" r="3.304"/>
		</g>
		<g>
			<path fill="#652D90" d="M19.087,69.674c-3.238,0-5.873-2.634-5.873-5.873s2.635-5.873,5.873-5.873s5.872,2.635,5.872,5.873
				S22.325,69.674,19.087,69.674z M19.087,63.067c-0.405,0-0.733,0.33-0.733,0.734s0.328,0.734,0.733,0.734
				c0.404,0,0.734-0.329,0.734-0.734S19.491,63.067,19.087,63.067z"/>
		</g>
	</g>
	<g>
		<g>
			<path fill="#652D90" d="M55.426,102.709c-12.346,0-22.391-10.044-22.391-22.39c0-12.346,10.045-22.391,22.391-22.391
				s22.39,10.044,22.39,22.391C77.815,92.665,67.771,102.709,55.426,102.709z M55.426,63.067c-9.514,0-17.252,7.739-17.252,17.252
				c0,9.512,7.738,17.251,17.252,17.251c9.513,0,17.251-7.739,17.251-17.251C72.677,70.807,64.938,63.067,55.426,63.067z"/>
		</g>
	</g>
	<g>
		<g>
			<path fill="#652D90" d="M75.246,89.496c-1.418,0-2.569-1.15-2.569-2.569s1.151-2.57,2.569-2.57c2.227,0,4.038-1.812,4.038-4.037
				c0-2.227-1.812-4.038-4.038-4.038c-1.418,0-2.569-1.15-2.569-2.569s1.151-2.57,2.569-2.57c5.061,0,9.177,4.117,9.177,9.177
				S80.307,89.496,75.246,89.496z"/>
		</g>
	</g>
	<g>
		<g>
			<path fill="#652D90" d="M55.426,89.496c-5.06,0-9.177-4.116-9.177-9.176s4.117-9.177,9.177-9.177s9.176,4.117,9.176,9.177
				S60.485,89.496,55.426,89.496z M55.426,76.281c-2.227,0-4.038,1.812-4.038,4.038c0,2.226,1.812,4.037,4.038,4.037
				c2.226,0,4.037-1.812,4.037-4.037C59.463,78.093,57.651,76.281,55.426,76.281z"/>
		</g>
	</g>
	<g>
		<g>
			<path fill="#652D90" d="M68.64,43.247H55.426c-1.419,0-2.569-1.15-2.569-2.569s1.15-2.569,2.569-2.569H68.64
				c1.419,0,2.568,1.15,2.568,2.569S70.059,43.247,68.64,43.247z"/>
		</g>
	</g>
	<g>
		<g>
			<path fill="#652D90" d="M15.783,102.709c-1.418,0-2.569-1.151-2.569-2.569V73.712c0-1.419,1.151-2.57,2.569-2.57
				c1.419,0,2.57,1.151,2.57,2.57v26.428C18.354,101.559,17.202,102.709,15.783,102.709z"/>
		</g>
	</g>
	<g>
		<g>
			<path fill="#F6921E" d="M6.974,33.464c-0.803,0-1.455-0.645-1.468-1.445l0,0c0-0.001,0-0.002,0-0.002c0-0.001,0-0.001,0-0.002
				l0,0c0,0,0-0.001,0-0.002v-0.001V32.01c0-0.001,0-0.002,0-0.002c0-0.001,0-0.001,0-0.001c0-0.001,0-0.001,0-0.001v-0.001
				c0,0,0,0,0-0.001v-0.001c0-0.001,0-0.001,0-0.001c0-0.001,0-0.001,0-0.002s0-0.001,0-0.003c0-2.568-2.159-2.805-2.824-2.815
				c-0.806-0.005-1.459-0.66-1.459-1.468c0-0.803,0.646-1.456,1.445-1.468l0,0c0.001,0,0.003,0,0.003,0s0.001,0,0.002,0l0,0
				c0,0,0.001,0,0.002,0h0.001c0.001,0,0.001,0,0.001,0c0.002,0,0.002,0,0.002,0h0.002h0.001h0.001c0,0,0.001,0,0.002,0l0,0h0.002
				c0.002-0.001,0.002-0.001,0.005,0c2.567,0,2.804-2.159,2.814-2.824c0.005-0.806,0.66-1.458,1.468-1.458
				c0.804,0,1.456,0.645,1.469,1.445l0,0c0,0.001,0,0.003,0,0.003c0,0,0,0.001,0,0.001v0c0,0.001,0,0.001,0,0.002v0
				c0,0.001,0,0.001,0,0.001c0,0.001,0,0.002,0,0.002c0,0,0,0.001,0,0.001s0,0,0,0.001v0c0,0.001,0,0.001,0,0.001v0.001
				c0,0,0,0.001,0,0.001c0,0,0,0,0,0c0,0.002,0,0.003,0,0.004c0,2.567,2.16,2.803,2.825,2.814c0.805,0.005,1.457,0.66,1.457,1.468
				c0,0.803-0.645,1.456-1.443,1.468l0,0c-0.002,0-0.004,0-0.004,0s-0.001,0-0.002,0l0,0c0,0-0.001,0-0.002,0h-0.001h-0.001
				c-0.002,0-0.002,0-0.002,0h-0.002h-0.001h-0.001c0,0-0.001,0-0.002,0l0,0h-0.002c-0.003,0-0.003,0-0.005,0
				c-2.567,0-2.804,2.159-2.814,2.824C8.438,32.812,7.782,33.464,6.974,33.464z M6.651,27.72c0.112,0.1,0.223,0.206,0.329,0.317
				c0.1-0.113,0.206-0.224,0.316-0.33c-0.112-0.1-0.223-0.206-0.33-0.317C6.868,27.503,6.762,27.614,6.651,27.72z"/>
		</g>
	</g>
	<g>
		<g>
			<path fill="#1B75BB" d="M112.373,92.393c-0.811,0-1.468-0.658-1.468-1.468c0-3.387-3.01-3.602-3.618-3.61
				c-0.808-0.004-1.46-0.66-1.46-1.468c0-0.803,0.646-1.457,1.446-1.468c0,0,0.002,0,0.003,0l0,0h0.002c0,0,0.001,0,0.003,0
				c0.001,0,0.001,0,0.001,0h0.001l0,0h0.002l0,0c0.002,0,0.002,0,0.002,0h0.002l0,0c0.002,0,0.002,0,0.002,0
				c0.002,0,0.002,0,0.004,0c3.51,0,3.61-3.24,3.61-3.609c0-0.811,0.657-1.468,1.468-1.468s1.469,0.658,1.469,1.468
				c0,3.385,3.008,3.601,3.616,3.609c0.808,0.004,1.461,0.661,1.461,1.468c0,0.804-0.646,1.457-1.447,1.468l0,0h-0.003l0,0h-0.002
				l0,0c0,0-0.002,0-0.004,0c0,0,0,0-0.001,0l0,0c0,0-0.001,0-0.002,0l0,0h-0.002h-0.001h-0.002l0,0c-0.002,0-0.003,0-0.005,0
				c-3.508,0-3.608,3.241-3.608,3.61C113.842,91.735,113.184,92.393,112.373,92.393z M111.568,85.86
				c0.293,0.233,0.568,0.496,0.819,0.791c0.233-0.292,0.496-0.568,0.791-0.819c-0.292-0.233-0.567-0.496-0.82-0.79
				C112.126,85.333,111.863,85.609,111.568,85.86z"/>
		</g>
	</g>
</g>
</svg>
